/* XPM */
static char * crateover_xpm[] = {
"64 64 700 2",
"  	c None",
". 	c #6B5C48",
"+ 	c #72614C",
"@ 	c #70604B",
"# 	c #74634D",
"$ 	c #695A46",
"% 	c #72624C",
"& 	c #75654F",
"* 	c #6F604B",
"= 	c #675944",
"- 	c #605542",
"; 	c #695C48",
"> 	c #746650",
", 	c #776650",
"' 	c #776750",
") 	c #7B6E55",
"! 	c #807359",
"~ 	c #7F7259",
"{ 	c #75654E",
"] 	c #6D5E49",
"^ 	c #71624C",
"/ 	c #6D5E4A",
"( 	c #736650",
"_ 	c #746750",
": 	c #84755B",
"< 	c #806E55",
"[ 	c #786650",
"} 	c #6B5B47",
"| 	c #5F523F",
"1 	c #5B4D3D",
"2 	c #5B4F3D",
"3 	c #7D6B54",
"4 	c #73634D",
"5 	c #70634D",
"6 	c #73654F",
"7 	c #756851",
"8 	c #7D6D55",
"9 	c #786851",
"0 	c #74644D",
"a 	c #665844",
"b 	c #6B5C47",
"c 	c #6E5E49",
"d 	c #75644E",
"e 	c #6A5B47",
"f 	c #70614B",
"g 	c #72654F",
"h 	c #72664F",
"i 	c #7A7057",
"j 	c #6D644D",
"k 	c #6B614C",
"l 	c #6F614B",
"m 	c #7B6952",
"n 	c #6F5F4A",
"o 	c #776A52",
"p 	c #8C8063",
"q 	c #594C3B",
"r 	c #4F4435",
"s 	c #4B4234",
"t 	c #4E4535",
"u 	c #4F4636",
"v 	c #4E4334",
"w 	c #4B4233",
"x 	c #4E4435",
"y 	c #4D4335",
"z 	c #4C4233",
"A 	c #4E4536",
"B 	c #4B4032",
"C 	c #514637",
"D 	c #544A3A",
"E 	c #504737",
"F 	c #574D3C",
"G 	c #483D30",
"H 	c #493E31",
"I 	c #483E30",
"J 	c #4F4535",
"K 	c #524737",
"L 	c #504435",
"M 	c #473D2F",
"N 	c #494032",
"O 	c #4C4334",
"P 	c #4F4536",
"Q 	c #4C4132",
"R 	c #493F31",
"S 	c #4D4535",
"T 	c #514838",
"U 	c #524838",
"V 	c #4A4233",
"W 	c #4B4334",
"X 	c #524637",
"Y 	c #514536",
"Z 	c #4A4031",
"` 	c #7C6A52",
" .	c #534737",
"..	c #463C2F",
"+.	c #463C2E",
"@.	c #4A4133",
"#.	c #4D4435",
"$.	c #4E4234",
"%.	c #514535",
"&.	c #544939",
"*.	c #4C4133",
"=.	c #514737",
"-.	c #4E4537",
";.	c #544B3C",
">.	c #564D3E",
",.	c #4D4334",
"'.	c #433A2D",
").	c #453B2E",
"!.	c #504536",
"~.	c #544938",
"{.	c #473E31",
"].	c #504637",
"^.	c #4A4132",
"/.	c #524939",
"(.	c #574E3D",
"_.	c #4E4636",
":.	c #564C3B",
"<.	c #4A4032",
"[.	c #41382B",
"}.	c #685945",
"|.	c #43392D",
"1.	c #524636",
"2.	c #665946",
"3.	c #766751",
"4.	c #6C5D48",
"5.	c #675845",
"6.	c #6E5F4A",
"7.	c #6F624C",
"8.	c #796B53",
"9.	c #70624C",
"0.	c #73634C",
"a.	c #746552",
"b.	c #7B6D58",
"c.	c #7D705A",
"d.	c #74644E",
"e.	c #73654E",
"f.	c #7A6A53",
"g.	c #6E604B",
"h.	c #6A5A46",
"i.	c #655845",
"j.	c #6A5C47",
"k.	c #685946",
"l.	c #71614C",
"m.	c #7D6C54",
"n.	c #766650",
"o.	c #685845",
"p.	c #645543",
"q.	c #655743",
"r.	c #72634D",
"s.	c #786951",
"t.	c #72644D",
"u.	c #7B6B54",
"v.	c #7B6E56",
"w.	c #81745A",
"x.	c #7A6D55",
"y.	c #73644E",
"z.	c #6C5E49",
"A.	c #776851",
"B.	c #695B47",
"C.	c #574C3C",
"D.	c #625441",
"E.	c #5B4E3D",
"F.	c #796851",
"G.	c #72624D",
"H.	c #756750",
"I.	c #796953",
"J.	c #6D604B",
"K.	c #71624D",
"L.	c #71654E",
"M.	c #7B6D56",
"N.	c #776953",
"O.	c #796952",
"P.	c #776954",
"Q.	c #796B57",
"R.	c #796A56",
"S.	c #71634E",
"T.	c #776952",
"U.	c #6F614C",
"V.	c #6A5D48",
"W.	c #6B5E49",
"X.	c #7C6B54",
"Y.	c #7E6D56",
"Z.	c #74654F",
"`.	c #685A46",
" +	c #756751",
".+	c #776A53",
"++	c #776B54",
"@+	c #786952",
"#+	c #796A53",
"$+	c #7C6C55",
"%+	c #796B54",
"&+	c #887A5F",
"*+	c #5F5340",
"=+	c #685B47",
"-+	c #5C4F3D",
";+	c #71604B",
">+	c #6D5D49",
",+	c #605240",
"'+	c #74654E",
")+	c #595042",
"!+	c #38332A",
"~+	c #342F27",
"{+	c #363128",
"]+	c #332E26",
"^+	c #353028",
"/+	c #363028",
"(+	c #352F27",
"_+	c #342E26",
":+	c #37322A",
"<+	c #38322A",
"[+	c #352F28",
"}+	c #332E27",
"|+	c #342F28",
"1+	c #373229",
"2+	c #39332B",
"3+	c #3A332A",
"4+	c #3A342B",
"5+	c #322E26",
"6+	c #302B24",
"7+	c #332F27",
"8+	c #353129",
"9+	c #363129",
"0+	c #322D26",
"a+	c #4F4639",
"b+	c #796A52",
"c+	c #87785E",
"d+	c #746751",
"e+	c #635743",
"f+	c #77654F",
"g+	c #615441",
"h+	c #73624C",
"i+	c #7A6851",
"j+	c #71614B",
"k+	c #645643",
"l+	c #806F57",
"m+	c #7F7158",
"n+	c #544C3E",
"o+	c #4B4237",
"p+	c #71634D",
"q+	c #5F5441",
"r+	c #7A6952",
"s+	c #4D4233",
"t+	c #827056",
"u+	c #605340",
"v+	c #7B6C54",
"w+	c #7B6B53",
"x+	c #50473A",
"y+	c #554B3D",
"z+	c #7C6A53",
"A+	c #6F604A",
"B+	c #7D6B53",
"C+	c #7E6C54",
"D+	c #72644E",
"E+	c #6D5E48",
"F+	c #504535",
"G+	c #7A6951",
"H+	c #796751",
"I+	c #524A3C",
"J+	c #584F41",
"K+	c #87755B",
"L+	c #827058",
"M+	c #816F56",
"N+	c #7E6D55",
"O+	c #75644F",
"P+	c #6C5E4A",
"Q+	c #514636",
"R+	c #7B6D55",
"S+	c #786A53",
"T+	c #6C5D49",
"U+	c #5E503F",
"V+	c #76664F",
"W+	c #7C6E55",
"X+	c #4E473B",
"Y+	c #52493C",
"Z+	c #7F6D55",
"`+	c #655844",
" @	c #53493C",
".@	c #6E5F4B",
"+@	c #6C5F4A",
"@@	c #564E40",
"#@	c #7C6E56",
"$@	c #5E513F",
"%@	c #806F56",
"&@	c #7B6A52",
"*@	c #4F483B",
"=@	c #4D4438",
"-@	c #615341",
";@	c #574D3F",
">@	c #362F28",
",@	c #6D5F4A",
"'@	c #4D4234",
")@	c #544838",
"!@	c #594F41",
"~@	c #7A6A52",
"{@	c #625442",
"]@	c #5D503F",
"^@	c #7A6C54",
"/@	c #84745B",
"(@	c #7C6D55",
"_@	c #4D4539",
":@	c #4E4539",
"<@	c #685C48",
"[@	c #615543",
"}@	c #342E27",
"|@	c #76654F",
"1@	c #554939",
"2@	c #806E56",
"3@	c #544A3D",
"4@	c #675945",
"5@	c #6A5D49",
"6@	c #7E6E56",
"7@	c #86755B",
"8@	c #494136",
"9@	c #52483C",
"0@	c #71644E",
"a@	c #625744",
"b@	c #564C3E",
"c@	c #4B4132",
"d@	c #4E4438",
"e@	c #685C47",
"f@	c #756650",
"g@	c #837058",
"h@	c #847259",
"i@	c #615542",
"j@	c #827259",
"k@	c #817057",
"l@	c #5A4F41",
"m@	c #73664F",
"n@	c #53493D",
"o@	c #5F513F",
"p@	c #806D55",
"q@	c #51483B",
"r@	c #816E56",
"s@	c #867359",
"t@	c #635744",
"u@	c #5E5344",
"v@	c #584E40",
"w@	c #766750",
"x@	c #5C4F3E",
"y@	c #534A3C",
"z@	c #52483B",
"A@	c #695D49",
"B@	c #7C7158",
"C@	c #84785E",
"D@	c #84765B",
"E@	c #5E5444",
"F@	c #554C3E",
"G@	c #7C6B53",
"H@	c #4F473A",
"I@	c #897C60",
"J@	c #85775C",
"K@	c #5D5444",
"L@	c #38332B",
"M@	c #756953",
"N@	c #534838",
"O@	c #7D6E56",
"P@	c #534939",
"Q@	c #554B3B",
"R@	c #6E5F49",
"S@	c #7F7057",
"T@	c #77664F",
"U@	c #6A5B46",
"V@	c #7E7057",
"W@	c #87795E",
"X@	c #5A5142",
"Y@	c #37332A",
"Z@	c #766A54",
"`@	c #817158",
" #	c #6E5E4A",
".#	c #5A5143",
"+#	c #655744",
"@#	c #4A4236",
"##	c #786750",
"$#	c #574B3A",
"%#	c #7E7059",
"&#	c #766851",
"*#	c #564B3A",
"=#	c #514738",
"-#	c #6D5F4B",
";#	c #827057",
">#	c #7C6C53",
",#	c #6A5E49",
"'#	c #84765C",
")#	c #4D453A",
"!#	c #705F4A",
"~#	c #5D503E",
"{#	c #625542",
"]#	c #5B5042",
"^#	c #373129",
"/#	c #7A6953",
"(#	c #837258",
"_#	c #8B795E",
":#	c #81735A",
"<#	c #695D48",
"[#	c #786A52",
"}#	c #7F6E55",
"|#	c #50483C",
"1#	c #786954",
"2#	c #6C5C48",
"3#	c #51483C",
"4#	c #574C3B",
"5#	c #5A5042",
"6#	c #8A7D61",
"7#	c #7E735B",
"8#	c #685C4A",
"9#	c #6E614D",
"0#	c #50483B",
"a#	c #4D4538",
"b#	c #665945",
"c#	c #7F6F57",
"d#	c #88775C",
"e#	c #4F463A",
"f#	c #574F41",
"g#	c #807058",
"h#	c #746651",
"i#	c #5F5342",
"j#	c #4D4639",
"k#	c #7B6A53",
"l#	c #605441",
"m#	c #87765C",
"n#	c #86765C",
"o#	c #7A6B54",
"p#	c #544B3D",
"q#	c #796C56",
"r#	c #7E6E58",
"s#	c #746853",
"t#	c #675B47",
"u#	c #807259",
"v#	c #4C4338",
"w#	c #4D463A",
"x#	c #776852",
"y#	c #786850",
"z#	c #7A6B53",
"A#	c #4E4538",
"B#	c #534B3D",
"C#	c #7C6C54",
"D#	c #564B3E",
"E#	c #6B5D48",
"F#	c #83745B",
"G#	c #837359",
"H#	c #6E604A",
"I#	c #363229",
"J#	c #7F7058",
"K#	c #75664F",
"L#	c #332F28",
"M#	c #716750",
"N#	c #766A53",
"O#	c #726650",
"P#	c #665845",
"Q#	c #554D3F",
"R#	c #847258",
"S#	c #6B5D49",
"T#	c #786B53",
"U#	c #837158",
"V#	c #443B2E",
"W#	c #635643",
"X#	c #655745",
"Y#	c #665A46",
"Z#	c #84735A",
"`#	c #5D5344",
" $	c #726751",
".$	c #71654F",
"+$	c #796951",
"@$	c #4B4133",
"#$	c #443A2D",
"$$	c #6B5F4B",
"%$	c #36322A",
"&$	c #7E6C55",
"*$	c #817157",
"=$	c #675A46",
"-$	c #8A7C60",
";$	c #615747",
">$	c #6B5C49",
",$	c #38342B",
"'$	c #584E3F",
")$	c #5C503F",
"!$	c #645744",
"~$	c #5C5544",
"{$	c #6F5F4B",
"]$	c #6C5C47",
"^$	c #695C47",
"/$	c #766B55",
"($	c #4C4437",
"_$	c #74634E",
":$	c #39342B",
"<$	c #655945",
"[$	c #706650",
"}$	c #4B4337",
"|$	c #7E6F56",
"1$	c #51493C",
"2$	c #3B342C",
"3$	c #655643",
"4$	c #6D624D",
"5$	c #4E463A",
"6$	c #6D5D48",
"7$	c #5B4F3E",
"8$	c #88795F",
"9$	c #7E7058",
"0$	c #494031",
"a$	c #7C6D54",
"b$	c #665744",
"c$	c #817159",
"d$	c #706550",
"e$	c #7E7259",
"f$	c #746550",
"g$	c #504636",
"h$	c #85745A",
"i$	c #51473B",
"j$	c #645743",
"k$	c #807057",
"l$	c #81725B",
"m$	c #84765D",
"n$	c #7B6F58",
"o$	c #665B46",
"p$	c #74664F",
"q$	c #484035",
"r$	c #3C352C",
"s$	c #554B3A",
"t$	c #837259",
"u$	c #6B5F4A",
"v$	c #7F6E56",
"w$	c #7D6D56",
"x$	c #615442",
"y$	c #675844",
"z$	c #463D33",
"A$	c #70614C",
"B$	c #6F634D",
"C$	c #5D513F",
"D$	c #695945",
"E$	c #635542",
"F$	c #322D25",
"G$	c #605341",
"H$	c #776751",
"I$	c #7C6F56",
"J$	c #817359",
"K$	c #574F40",
"L$	c #73644D",
"M$	c #635543",
"N$	c #494237",
"O$	c #2E2A23",
"P$	c #675846",
"Q$	c #3C3328",
"R$	c #3D3429",
"S$	c #76654E",
"T$	c #897A5F",
"U$	c #867B5F",
"V$	c #5D5646",
"W$	c #54493D",
"X$	c #524B3D",
"Y$	c #40372B",
"Z$	c #817058",
"`$	c #807158",
" %	c #5B5243",
".%	c #554C3F",
"+%	c #5D523F",
"@%	c #756651",
"#%	c #534B3E",
"$%	c #40362A",
"%%	c #52493D",
"&%	c #595142",
"*%	c #70644E",
"=%	c #796C55",
"-%	c #605848",
";%	c #83735A",
">%	c #5A4D3C",
",%	c #5B5142",
"'%	c #5B5143",
")%	c #87745A",
"!%	c #4E4639",
"~%	c #312C25",
"{%	c #4F4637",
"]%	c #524A3D",
"^%	c #84735B",
"/%	c #5A4F40",
"(%	c #4F473B",
"_%	c #2F2A23",
":%	c #39322A",
"<%	c #534C3E",
"[%	c #564D3F",
"}%	c #817258",
"|%	c #786953",
"1%	c #574E3F",
"2%	c #70604A",
"3%	c #564B3B",
"4%	c #554A3D",
"5%	c #594F40",
"6%	c #615340",
"7%	c #4E4434",
"8%	c #665745",
"9%	c #5E5544",
"0%	c #8D7A5F",
"a%	c #5B4D3C",
"b%	c #7D6F56",
"c%	c #766952",
"d%	c #4A4237",
"e%	c #6A5C48",
"f%	c #493E30",
"g%	c #826F56",
"h%	c #5F5646",
"i%	c #72644F",
"j%	c #473F34",
"k%	c #4D4338",
"l%	c #6A5F4A",
"m%	c #494236",
"n%	c #695946",
"o%	c #554B3E",
"p%	c #50473B",
"q%	c #352E27",
"r%	c #564A3A",
"s%	c #796C54",
"t%	c #534A3D",
"u%	c #4C4337",
"v%	c #544A39",
"w%	c #6C5F4B",
"x%	c #6C604C",
"y%	c #4E4439",
"z%	c #4D4337",
"A%	c #6F634E",
"B%	c #73624D",
"C%	c #86765D",
"D%	c #87795F",
"E%	c #4A3F31",
"F%	c #806E57",
"G%	c #473D30",
"H%	c #7D6A53",
"I%	c #7E6D54",
"J%	c #564A39",
"K%	c #3A342C",
"L%	c #3B352C",
"M%	c #3C362C",
"N%	c #383229",
"O%	c #373028",
"P%	c #3B352D",
"Q%	c #3A362D",
"R%	c #3D382E",
"S%	c #3C362D",
"T%	c #3E382F",
"U%	c #3D382F",
"V%	c #3E3930",
"W%	c #3C372E",
"X%	c #584F42",
"Y%	c #7E6E55",
"Z%	c #483F31",
"`%	c #71614D",
" &	c #756550",
".&	c #73634E",
"+&	c #796852",
"@&	c #73634F",
"#&	c #73644F",
"$&	c #7B7057",
"%&	c #7D7259",
"&&	c #7F745C",
"*&	c #756852",
"=&	c #776B53",
"-&	c #74644F",
";&	c #70624D",
">&	c #726651",
",&	c #7C6F57",
"'&	c #82755E",
")&	c #82745D",
"!&	c #7E715A",
"~&	c #7D6C55",
"{&	c #807159",
"]&	c #6A5B48",
"^&	c #6C5D4A",
"/&	c #7C7057",
"(&	c #8A795E",
"_&	c #695B46",
":&	c #71644D",
"<&	c #786C55",
"[&	c #786D55",
"}&	c #7C7159",
"|&	c #7F6F56",
"1&	c #71644F",
"2&	c #6D614C",
"3&	c #817259",
"4&	c #463D2F",
"5&	c #453D2F",
"6&	c #554A3A",
"7&	c #534938",
"8&	c #534A39",
"9&	c #544B3A",
"0&	c #4F4334",
"a&	c #564D3B",
"b&	c #564D3C",
"c&	c #514939",
"d&	c #504738",
"e&	c #584E3C",
"f&	c #5A4F3E",
"g&	c #594D3C",
"h&	c #473F31",
"i&	c #685B46",
"j&	c #4C4234",
"k&	c #584E3D",
"l&	c #584D3C",
"m&	c #554A39",
"n&	c #594F3D",
"o&	c #85755B",
"p&	c #89785E",
"q&	c #8B785D",
". + @ # $ % & * = - ; > , ' ) ! ~ { ] ^ , / ( _ : < [ @ } | 1 2 $ & , 3 4 4 ] 5 6 7 8 9 0 a b c d = e e f g h i j k l m d n o p ",
"% q r r s t u v v w x y r z t u A v B C D u E E F C B G H I H B r J C K L B M N N O J P z I H B Q R S T U O V W W W P X Y Z U _ ",
"`  ...+.@.#.#.$.%.&.U O *.x U =.r r -.;.>.u ,.t U O M '.)...Y !.~.O U J r I '.{.N A J J z v z ].^.P /.(.(.x P N _.x :.C <.[.H e ",
"}.R |.1.2.3.5 4.n # d 5.6.7.8.6 9.0.a.b.c.> d.e.f.g.h.i.j.k.l.# m.9.n.6.d n o.p.q.r.s.9 r.d c t.6.u.v.w.x.y.z.6.e.A.8.B.C.).z e ",
"q.I ..D.E.+ F.0 G.H.I.J.K.L.M.N.O.' P.Q.R.g.S.h T.U.z.V.W.W.& 4 X.A.Y.Z.d.r.] k.`. +.+++( @+r.#+T.$+3.u.H.r.U.%+&+: o *+=+I v { ",
"-+).Z ;+>+,+b '+f.)+!+~+{+]+^+^+/+(+_+:+<+~+[+~+/+}+|+:+1+2+<+<+3+3+4+<+1+<+~+5+6+7+}+8+/+1+9+/+/+]+5+(+(+0+a+b+c+d+e+e l.R ,.f+",
"g+R v h+i+j+k+% l+m+n+                                                                                    o+{ p+> q+^ r+@ B s+F.",
"`.*.Y r+t+m @ u+p+v+w+x+                                                                                y+O.z+j.D.A+B+C+D+,.z E+",
"`.v F+G+H+8 f.W.E.>+z+` I+                                                                            J+K+L+d.g+% M+N+O+P+N w n ",
"4 Q+K [ O.n+R+S+T+U+c V+W+X+                                                                        Y+v+Z+n.`+{ M+M+ @.@+@<.x % ",
"}.*.r d f ^+@@#@, h.$@6.%@&@*@                                                                    =@b+T.D+-@d.m %@;@>@,@;+'@)@M+",
"{ Q+F+d & ~+  !@~@} {@]@^@/@(@_@                                                                :@h+7 <@[@] C+' y+  }@r.|@Q+1@2@",
"@ r B ;+r.5+    3@}.4@T+5@6@7@C+8@                                                            9@F., 0@a@d+z+%@b@    ]+r.n Y Q+r+",
"< ~.c@n T./+      d@6.A.8.e@f@g@i+:@                                                        b@h@%@] i@U.j@k@l@      ]+m@,@t r m ",
"m K c@n H./+        n@A.w+z.o@# p@X.q@                                                    q@r@s@d t@( : 7@u@        [+0@,@x v |@",
"m.1@J d.S+:+          v@w@] D.x@>+r+N+y@                                                z@m.p@s.A@B@C@D@E@          1+m@9.N v m ",
"@ !.!.d.H.9+            F@4 @ e $@@ G@G@q@                                            H@` r+@ {@d+I@J@K@            L@M@D+z N@O@",
"@ P@Q@N.#+4+              y+d.@ b ]@R@G+S@n+                                        9@V+T@U@| l V@W@X@              Y@Z@* B U `@",
" #P P p+9.:+                .#T@Z+{ +#j+X.S@I+                                    @###d.4@$#5.##` l@                L@%#&#)@*#j@",
"% =#N -#7.<+                  v@h@;#>#,##@'#`@q@                                )#!#G+A+~#{#$ |@]#                  ^#/## K  .3 ",
"@ r G +#2.]+                    l@(#_#:#<#[#N+}#z@                            |#1#@ g.=+7 V+2#3#                    ^#F.n.4#4#N+",
"4 L z c d+9+                      5#c+6#7#8#9#T@v+0#                        a#G+{ >+b#c#d#'+e#                      >@G.4 &.P@, ",
"+ v Y 0.u./+                        f#g#%#h#i#d.`@`@j#                    j#k#C+p+l#[#m#n#y+                        /+D+f@P@U & ",
"T@s+Z 6.o#9+                          p#q#r#s#t#.+u#7 v#                w#w@9 T+l#V.X.i+b@                          >@x#, Q+v d ",
"y#L I }.D+/+                            3#m.: #@t#&#z#v+A#            B#C#F.n.+#b+f.N+D#                            :+H.{ ,. .` ",
"A+L B 5.E#(+                              !@F#G#D+t@H#(@G+q@        B#w@d.b a G.r+|@;@                              }+H#4 r $#r@",
"r.!.z e ,@I#                                F@v+@+6.U+# C+< x+    *@J#O@g.U+K#%@C#;@                                L#M#N#=.$#r@",
"O#O R e P#}@                                  Q#w@% ] 5.F.R#H+y+9@4 A.. *+S#G#`@y+                                  5+Z@T#&.1@U#",
"V@O V#W#X#}+                                    Q#% m % k+d Z+U#w@9 W.Y#@+%@Z#`#                                    }+ $.$#.v +$",
"R+@$#$a $$%$                                      q@&$C+;+u+@ *$r.=$~.D+`@-$;$                                      /+>$e <.L N+",
"##v ,.+@.+,$                                        '$F.@ k+x@r.S#)$!$^@A.~$                                        /+{$]$B z + ",
"@ B z ^$/$Y@                                          ($j+}.{@B v $ _$'+a+                                          :$@+U@M I f ",
"}.R ,.<$[$^+                                          }$% +#k+H )@j+;#|$1$                                          2$$+j+..'.3$",
". Z H u+4$^+                                        5$^ 6$g+7$b#* 2.c#8$9$X+                                        2$C#T@z 0$W.",
"a$r B b$&#!+                                      8@h+. | r b#' c$N#d$e$I@V@j#                                      2$f$&@g$!.g.",
"h$Q+v !$L.^+                                    i$% 4.k+C j$e.k$l$m$n$o$0@p$E#q$                                    r$O.B+s$s$f@",
"t$!.x {@u$7+                                   @v$9.`+*#b#A+4  @n+w$9$t.x$>+e y$z$                                  ]+A$% K Q+* ",
"@ B ,.E#W.0+                                9@m k@S#l#B$V@/@J+    b@F.& H#C${@D$E$o+                                F$r.n 1@r + ",
"G$|...% H$^#                              :@F.Z+A.W#[#I$J$K$        '$&@h@L$D.b$E$M$N$                              O$P$^$K g$@ ",
"-+Q$R$4.n./+                            z@G@S$r.b#~@T$U$V$            W$B+##h+E.-@}.Z@X$                            ]+A$^ g$C r.",
"k+Y$Y$b$r.^#                          Y+T@T@b$g+^ Z$`$ %                .%|$n#U.+%<$#@@%#%                          /+G.r.J x `.",
"@ ..$%U+P#_+                        %%6@, >+E.H#|$F#)+                    &%'#C#9 l#*%S.=%X$                        ^#9 h+v v 6$",
"6$R M c ^ }@                      B#G+[ b$E.6.N+k@5#                        -%F#K+8.<$j.O.v+0#                      0+T+}.z s+6$",
"@+O {. #A$_+                    Y+;%< f >%5., m.,%                            '%)%h@f@*+T+& { !%                    ~%k.b Q L % ",
"(@g${%w@$+/+                  ]%O@^%d.g+$ d.~@,%                                /%U#h$y.D.b |@T@(%                  _%P$z.F+U f@",
"k$U E r.$+:%                <%V+_$h+{#* % V+[%                                    '$N+'+`.x@>+< 6@p#                ]+r.0 N@:.}%",
"# v P ,@|%9+              0#v+;+U@o@4.T@@ 1%                                        b@F.r+F.{@2%b+J#|#              (+H$d.Q+3%j@",
"n v v j.P+}@            !%m F.b$7$z.C#i+4%                                            5%N+R#0 6%$ ~@y.}$            /+& b M 7%G@",
"Z.g$x }.8%O$           @m r+b -+r.8 8$.#                                                9%0%C#} a%r.b%c%d%          ]+e%+#'.f%n ",
"Z.g$,.6.P$6+        z@g%r+n q b w+8 h%                                                    l@y.%  #D.i%S.5 j%        6+z.. R H . ",
"y.C v ;+z.]+      k%i+z+$ >%k+{ m.!@                                                        e#4.8 K#l%J.&#4._@      ~%r.{ K v . ",
"7 P@$.@ * <+    m%% F.@ E.k+n% #o%                                                            d@~@K#y.,+l.z+r+p%    q%O.G+r%&.A.",
"s%:.Q+>+* :%  9@r.d.% q.@  #$ j%                                                                t%r.n.D+i.5 j+@ u%  /+w@% K N@#+",
") v%{%w%x%q%i$# @ c k+d.i+% y%                                                                    Y+|@6@@+2.y$e $ z%}@f@# v g$s.",
"^ 7%V +@A%4%Z+C+B%a B%3 F.b@                                                                        l@C%D%d+{#}.j+6.n@9 @ E%B @ ",
"e B w U.h#d.T@} {@##z+## @                                                                            l@j@g#[#{@}.;+r+F%9.M G% #",
"A$L v V+m H%j+p.0 I%&@4%                                                                                 %G#/@^ U+$ 2@N+] ).G%. ",
"e v J%N+Z+4.>%] &@##[%                                                                                    1%`$S@G.~#9 m.Z...f%e ",
"/ r  .&@{$2 4@r+H%W$<+^#:$!+K%2+K%L%M%M%!+N%~+O%N%2+4+K%P%Q%L%R%2$:$!+r$S%M%K%2+L%T%U%V%W%U%r$S%S%2$/+^#/+L%X%`$Y%2#E$4.B%B z 6.",
"i@Z%x E$E.q.% C#f.> `%`%f@ &H$.&#+8.O@v++&@&.@#&S.i%i%h#S+$&%&&&*&=&#+k$(@x#-&`%;&>&,&'&)&!&c#~&{&*&9#]&^&*&/&m$(&B+c x@D.@$<.E#",
"V.0$G%H D.6$& A.f@' j+j+@ c 6.6$|@# d 4 4 4 e 6._&:&p+6 f@<&[&}&i%s%O.|&f@$ 3$E$e%H#f@V+w+w+8 & > 1&2&e%2#f@O@3&%@B+h+$ v 4&4&b#",
"t.^.5&Y$x g$6&7&8&9&P s+*.v v Z P J 7&F+Y 0&v J F+a&b&T v A {%c&t Q@6&*#g$E%G |.#$#$*.F+!.g$J r y S d&,.v J e&f&g&)@v c@V#h&s i&",
"# Q+J ,.:.3%6&Q+g$7&].*.I B c@Q P U N@K Y X v F+X 4#4#].v '@Q+&.=.K C 1@C Q M ..M R v g$z Q B v z #._.j&z P k&l&m&F+Y !.U 7&n&|@",
"+ n ~@A.`$l+z#& 5 s.6 j+] & # d f@b+@+` 9 +$# i+r+w+~@y.4 4 k#3&S@v+T@F.m m d d.e ] 6 (@> j+E+T@u.b+A.] d.@+o&b%9 b 9.l #@S@p&q&"};
